<svg viewBox="0 0 100 100" xmlns="http://www.w3.org/2000/svg">
  <defs>
    <linearGradient id="pipBody" x1="0%" y1="0%" x2="100%" y2="100%">
      <stop offset="0%" stop-color="#34d399" />
      <stop offset="100%" stop-color="#059669" />
    </linearGradient>
  </defs>

  <!-- Main blob body -->
  <path
    d="M50 10
       C70 10, 85 25, 85 45
       C85 55, 90 60, 88 70
       C85 85, 70 92, 50 92
       C30 92, 15 85, 12 70
       C10 60, 15 55, 15 45
       C15 25, 30 10, 50 10Z"
    fill="url(#pipBody)"
  />

  <!-- Eyes -->
  <ellipse cx="35" cy="45" rx="6" ry="8" fill="#0a0a0a" />
  <ellipse cx="65" cy="45" rx="6" ry="8" fill="#0a0a0a" />

  <!-- Eye highlights -->
  <circle cx="37" cy="42" r="2.5" fill="white" opacity="0.8" />
  <circle cx="67" cy="42" r="2.5" fill="white" opacity="0.8" />

  <!-- Smile -->
  <path
    d="M38 65 Q50 75, 62 65"
    stroke="#0a0a0a"
    stroke-width="3"
    stroke-linecap="round"
    fill="none"
  />

  <!-- Cheeks -->
  <circle cx="25" cy="58" r="5" fill="#10b981" opacity="0.3" />
  <circle cx="75" cy="58" r="5" fill="#10b981" opacity="0.3" />
</svg>
