<svg width="1200" height="630" viewBox="0 0 1200 630" xmlns="http://www.w3.org/2000/svg">
  <defs>
    <linearGradient id="bg" x1="0%" y1="0%" x2="100%" y2="100%">
      <stop offset="0%" stop-color="#0a0a0a" />
      <stop offset="100%" stop-color="#0a1a2e" />
    </linearGradient>
    <linearGradient id="blueGlow" x1="50%" y1="0%" x2="50%" y2="100%">
      <stop offset="0%" stop-color="#007AFF" stop-opacity="0.3" />
      <stop offset="100%" stop-color="#007AFF" stop-opacity="0" />
    </linearGradient>
  </defs>

  <!-- Background -->
  <rect width="1200" height="630" fill="url(#bg)" />

  <!-- Subtle glow behind icon -->
  <ellipse cx="600" cy="180" rx="180" ry="140" fill="url(#blueGlow)" />

  <!-- Large speech bubble icon (centered, prominent) -->
  <g transform="translate(515, 70) scale(1.7)">
    <path
      d="M50 8
         C75 8, 92 24, 92 44
         C92 64, 75 80, 50 80
         C43 80, 36 78, 30 75
         L14 88
         L20 72
         C12 65, 8 55, 8 44
         C8 24, 25 8, 50 8Z"
      fill="white"
    />
    <circle cx="30" cy="44" r="7" fill="#007AFF" />
    <circle cx="50" cy="44" r="7" fill="#007AFF" />
    <circle cx="70" cy="44" r="7" fill="#007AFF" />
  </g>

  <!-- Main headline - shorter -->
  <text x="600" y="320" font-family="system-ui, -apple-system, BlinkMacSystemFont, sans-serif" font-size="56" font-weight="700" text-anchor="middle" fill="white">
    Meet Pip
  </text>

  <!-- Subheadline -->
  <text x="600" y="380" font-family="system-ui, -apple-system, BlinkMacSystemFont, sans-serif" font-size="26" text-anchor="middle" fill="#a3a3a3">
    Your AI companion that lives on your desktop
  </text>

  <!-- CTA Badge -->
  <rect x="460" y="430" width="280" height="56" rx="28" fill="#007AFF" />
  <text x="600" y="467" font-family="system-ui, -apple-system, BlinkMacSystemFont, sans-serif" font-size="22" font-weight="600" text-anchor="middle" fill="white">
    Join the Waitlist
  </text>

  <!-- Bottom branding -->
  <text x="600" y="575" font-family="Arial, Helvetica, sans-serif" font-size="24" font-weight="500" text-anchor="middle" fill="#666666" letter-spacing="1">
    PIPBOT.CO
  </text>
</svg>
